<?xml version="1.0" standalone="no"?>
<!DOCTYPE svg PUBLIC "-//W3C//DTD SVG 20010904//EN"
 "http://www.w3.org/TR/2001/REC-SVG-20010904/DTD/svg10.dtd">
<svg version="1.0" xmlns="http://www.w3.org/2000/svg"
 width="640.000000pt" height="640.000000pt" viewBox="0 0 640.000000 640.000000"
 preserveAspectRatio="xMidYMid meet">

<g transform="translate(0.000000,640.000000) scale(0.100000,-0.100000)"
fill="#000000" stroke="none">
<path d="M1030 5866 l0 -43 78 -13 c151 -24 297 -95 391 -189 88 -88 103 -128
112 -295 4 -78 8 -1016 8 -2086 -1 -1908 -1 -1943 -19 -1865 -33 143 -84 262
-238 556 -153 292 -203 435 -222 644 -20 210 6 389 126 865 90 356 118 499
130 675 4 61 10 102 12 93 5 -25 14 -23 48 13 24 25 29 38 28 80 0 27 -4 52
-7 56 -10 9 -67 -47 -67 -66 0 -41 -10 5 -19 93 -14 121 -43 238 -82 330 -24
56 -30 87 -33 155 -1 47 -6 95 -11 105 -6 13 -5 17 2 13 6 -4 17 -29 24 -57 7
-27 17 -46 22 -43 9 6 6 -17 -10 -72 -5 -19 -4 -19 19 3 13 12 29 22 35 22 12
0 33 43 33 68 0 15 2 15 10 2 8 -11 9 -4 6 25 -2 22 -1 29 3 15 4 -18 7 -8 12
35 l6 60 -1 -67 c-1 -53 -6 -74 -25 -99 -13 -17 -18 -30 -10 -27 21 7 50 52
59 91 11 51 -4 110 -47 179 -33 53 -36 63 -26 89 10 25 9 29 -7 29 -27 0 -70
-56 -70 -91 0 -16 -2 -29 -4 -29 -2 0 -30 16 -62 35 -65 39 -74 42 -74 20 0
-25 -21 -26 -89 -5 -36 11 -67 18 -69 15 -2 -2 -9 -38 -14 -79 -11 -75 -12
-76 -40 -76 l-29 0 6 -52 c4 -29 8 -58 10 -64 3 -9 -13 -10 -53 -7 -52 5 -59
3 -81 -21 l-24 -26 36 0 c34 0 40 -5 66 -47 45 -73 82 -115 118 -129 49 -21
143 -17 143 5 0 4 -24 6 -52 4 -45 -3 -61 1 -105 27 -29 17 -53 36 -53 42 0 6
10 2 23 -10 23 -22 87 -52 109 -52 7 1 -1 7 -18 14 -18 8 -35 19 -39 26 -4 7
6 5 24 -5 41 -21 120 -35 127 -23 3 5 18 14 32 20 l27 11 -40 9 c-22 5 -44 14
-50 20 -7 7 -3 9 15 5 14 -3 43 -8 65 -11 l40 -6 -41 15 c-22 9 -54 29 -70 46
l-29 30 59 -35 c76 -46 91 -46 38 0 -41 35 -99 120 -89 130 2 3 14 -10 26 -29
12 -19 41 -54 66 -78 110 -107 173 -412 146 -714 -16 -172 -48 -326 -127 -613
-146 -526 -179 -765 -139 -1022 30 -198 80 -322 261 -652 176 -318 238 -503
237 -703 -1 -79 -7 -117 -27 -182 -45 -140 -143 -261 -251 -308 -50 -22 -170
-51 -240 -57 -28 -3 -30 -6 -33 -51 l-3 -47 1260 0 1261 0 0 50 0 49 -37 6
c-111 16 -236 49 -298 79 -196 94 -324 253 -374 466 -40 172 -43 240 -48 1143
l-5 877 579 0 c866 1 1068 14 1332 91 395 114 688 355 822 678 142 341 123
815 -47 1153 -153 304 -457 574 -789 699 -315 119 -498 129 -2312 129 l-1343
0 0 -44z m2628 -102 c347 -59 653 -283 810 -591 166 -325 198 -783 79 -1128
-91 -264 -299 -505 -539 -626 -169 -85 -353 -117 -708 -124 -225 -5 -232 -4
-175 10 155 39 292 99 410 178 139 94 285 274 354 436 154 363 66 774 -194
906 -70 35 -166 43 -259 21 -38 -9 -71 -15 -73 -12 -6 6 56 26 81 26 17 0 18
2 6 10 -8 5 -37 10 -64 10 -55 0 -56 8 -2 20 23 5 43 3 60 -5 23 -12 24 -12
16 8 -5 12 -11 35 -15 50 -7 33 -57 67 -99 67 -15 0 -50 -8 -77 -17 -40 -15
-53 -15 -69 -5 -17 11 -20 10 -20 -8 0 -22 37 -60 59 -60 10 0 3 -12 -19 -35
-29 -29 -33 -39 -23 -53 8 -15 6 -26 -13 -58 -13 -21 -24 -42 -24 -46 0 -3 23
-14 51 -23 40 -14 50 -21 46 -35 -6 -22 11 -30 59 -30 31 0 34 -2 24 -19 -11
-22 -14 -74 -3 -84 3 -4 11 3 17 15 6 12 31 28 56 37 25 9 55 21 66 28 27 16
57 77 51 106 -3 19 -5 18 -11 -9 -4 -17 -13 -31 -20 -31 -9 0 -8 10 4 35 13
27 15 39 6 58 l-11 23 -13 -25 c-8 -14 -16 -24 -19 -21 -2 3 1 16 7 29 11 20
9 20 -19 -6 -17 -16 -33 -27 -36 -24 -3 3 11 20 31 38 36 31 40 32 100 27 82
-8 147 -40 210 -102 99 -98 144 -232 144 -425 0 -530 -428 -940 -1037 -995
l-73 -7 0 1239 c0 682 3 1243 8 1248 13 14 764 -4 860 -21z m-1374 -675 c20
-30 32 -39 46 -34 14 5 21 -3 35 -39 l17 -45 28 21 c20 15 36 19 55 14 l26 -7
-21 -17 c-14 -12 -23 -34 -29 -72 -12 -89 -54 -134 -116 -126 -16 3 -41 5 -54
5 -23 1 -23 1 -3 19 11 9 25 32 31 51 17 53 13 60 -10 16 -11 -22 -30 -49 -40
-60 -20 -20 -20 -20 -10 8 6 16 11 43 10 60 -1 29 -2 27 -11 -13 -6 -25 -14
-50 -19 -56 -12 -15 12 -138 44 -229 14 -38 50 -127 80 -196 105 -239 144
-404 154 -649 12 -303 -34 -575 -184 -1090 -219 -756 -247 -897 -248 -1250 0
-228 17 -356 65 -495 11 -32 17 -67 14 -78 -4 -14 -3 -17 6 -12 8 5 11 4 7 -2
-4 -6 -1 -16 7 -22 11 -9 12 -2 4 41 -6 29 -8 109 -5 178 8 189 43 304 152
490 49 84 79 157 88 211 5 32 2 38 -20 48 -14 7 -28 9 -31 7 -3 -3 6 -10 19
-14 24 -9 24 -9 -9 -26 -56 -29 -107 1 -132 76 -6 21 -21 44 -32 52 -20 14
-20 14 1 21 11 3 29 1 40 -4 29 -16 31 -14 31 24 0 28 4 35 20 35 14 0 22 11
31 40 7 22 15 40 18 40 3 0 21 -9 40 -21 27 -16 36 -18 42 -7 6 9 15 6 38 -16
17 -16 32 -28 33 -25 2 2 8 13 14 24 6 11 22 22 35 23 20 3 21 2 10 -11 -10
-13 -10 -25 2 -64 15 -52 8 -101 -18 -123 -8 -7 -15 -10 -15 -6 0 4 -13 0 -29
-8 l-28 -15 4 47 c3 35 2 43 -6 32 -6 -8 -11 -28 -12 -45 -1 -28 -1 -27 -16
13 -18 51 -25 51 -14 2 4 -19 4 -69 0 -110 -7 -65 -19 -95 -89 -238 -122 -247
-159 -402 -146 -616 3 -64 2 -106 -3 -100 -29 30 -129 194 -171 279 -157 320
-230 692 -201 1030 16 183 51 342 122 545 118 341 147 474 135 618 -7 87 -10
93 -59 126 -48 33 -61 33 -22 0 28 -24 28 -25 6 -19 -16 5 -21 4 -17 -4 4 -6
15 -11 24 -11 12 0 7 -6 -13 -20 -62 -41 -121 -20 -158 58 -15 31 -30 48 -46
52 -40 9 0 34 44 27 l35 -6 0 40 c0 31 4 39 19 39 14 0 20 10 24 41 3 22 8 43
11 46 3 4 24 -2 47 -12 34 -16 42 -17 49 -5 7 12 14 11 39 -8 35 -25 51 -28
51 -8 0 19 27 46 46 46 11 0 12 -4 3 -18 -9 -14 -7 -27 10 -60 26 -52 27 -109
1 -142 -21 -27 -27 -21 -10 11 7 13 7 19 0 19 -5 0 -10 -7 -10 -15 0 -13 -37
-55 -49 -55 -3 0 -7 21 -8 47 -1 25 -6 50 -10 54 -11 11 -8 -111 6 -213 8 -63
9 -111 1 -180 -14 -118 -27 -169 -105 -408 -75 -227 -101 -331 -120 -479 -17
-126 -19 -382 -4 -501 32 -265 117 -532 240 -756 23 -41 43 -73 46 -71 2 3 -7
38 -21 78 -66 198 -92 490 -67 744 26 253 61 406 220 962 162 568 195 749 195
1073 1 296 -27 427 -152 725 -57 134 -102 281 -102 329 0 22 -10 44 -33 69
-18 20 -37 37 -41 37 -5 0 1 -11 14 -25 l23 -25 -27 0 c-18 0 -35 9 -48 25
-11 14 -25 22 -31 18 -6 -4 -8 -1 -5 9 4 8 0 15 -7 15 -19 0 -1 -33 26 -48 11
-6 18 -13 15 -16 -10 -10 -55 27 -71 58 -13 23 -15 46 -9 98 5 59 4 70 -11 78
-25 15 -2 25 29 13 14 -5 31 -18 38 -29 11 -19 13 -18 37 17 13 20 26 39 27
41 2 2 11 -2 19 -9 14 -12 21 -8 53 23 20 20 40 37 43 37 3 0 18 -18 33 -41z
m-915 -174 l-1 -40 -8 45 c-5 25 -13 58 -19 73 -17 45 -11 46 10 2 10 -22 18
-58 18 -80z m2065 47 c3 -5 -10 -4 -29 2 -20 6 -29 13 -22 18 11 7 42 -5 51
-20z m-2195 -79 c21 -41 32 -75 21 -68 -10 6 -70 118 -70 131 0 9 34 -35 49
-63z m2159 60 c-10 -2 -28 -2 -40 0 -13 2 -5 4 17 4 22 1 32 -1 23 -4z m-2283
-201 c22 -8 24 -11 10 -11 -26 -1 -68 27 -96 64 -20 27 -18 26 17 -6 21 -20
53 -41 69 -47z m2325 73 c0 -6 -50 -31 -80 -39 -14 -4 -5 5 20 18 45 25 60 30
60 21z m50 -74 c0 -5 -15 -20 -32 -32 l-33 -22 30 31 c35 35 35 35 35 23z m10
-64 c0 -2 -12 -14 -27 -28 l-28 -24 24 28 c23 25 31 32 31 24z m-2062 -425
c-6 -24 -13 -41 -15 -38 -2 2 1 23 7 46 6 23 13 40 15 38 2 -2 -1 -23 -7 -46z
m893 -48 c30 -15 73 -89 63 -106 -18 -29 -98 14 -124 66 -11 23 -20 45 -20 49
0 13 51 7 81 -9z m257 -396 c21 -21 14 -57 -14 -70 -22 -11 -28 -10 -40 7 -19
26 -18 52 4 64 23 14 36 13 50 -1z m-302 -793 c19 -32 26 -60 26 -94 0 -59
-17 -97 -37 -81 -40 33 -58 140 -33 195 6 14 13 25 14 25 2 0 15 -20 30 -45z
m-348 -88 c23 -35 30 -109 12 -137 -7 -12 -13 -11 -34 9 -42 39 -56 118 -30
163 8 13 29 -2 52 -35z m472 -618 c0 -33 -6 -47 -34 -75 -32 -32 -81 -46 -99
-28 -13 14 39 86 82 114 24 17 46 30 48 30 2 0 3 -18 3 -41z m-377 -97 c-16
-33 -73 -82 -94 -82 -5 0 -9 15 -9 34 0 43 36 96 80 119 l35 17 3 -25 c2 -14
-5 -42 -15 -63z m1 -273 c29 -34 34 -84 12 -114 -14 -19 -15 -19 -34 -2 -34
31 -46 71 -32 111 6 20 15 36 20 36 4 0 20 -14 34 -31z m196 -459 c22 -22 26
-60 10 -91 -13 -23 -28 -24 -52 -2 -30 27 -20 113 14 113 4 0 17 -9 28 -20z
m-417 -82 c34 -17 46 -39 47 -80 0 -42 -7 -45 -50 -23 -30 16 -55 70 -44 98 7
20 18 21 47 5z m547 -328 c0 -38 -39 -80 -75 -80 -20 0 -25 5 -25 24 0 39 11
57 44 72 47 20 56 17 56 -16z"/>
<path d="M3981 4614 c-29 -37 -26 -124 4 -124 23 0 55 51 55 86 0 68 -24 83
-59 38z m9 -91 c-11 -17 -11 -17 -6 0 3 10 7 28 7 40 2 22 2 22 6 0 2 -12 -1
-30 -7 -40z"/>
<path d="M3710 4533 c0 -43 45 -124 87 -155 42 -33 55 -29 46 15 -10 51 -40
104 -75 130 -55 40 -58 41 -58 10z m85 -105 c25 -35 30 -46 14 -31 -24 21 -65
83 -56 83 3 0 22 -24 42 -52z"/>
<path d="M4040 4049 c-38 -15 -90 -58 -90 -75 0 -22 76 -18 124 6 23 12 51 34
64 50 l24 30 -49 -1 c-26 0 -59 -5 -73 -10z m-3 -45 c-27 -14 -51 -23 -53 -21
-6 5 77 47 91 47 6 -1 -12 -12 -38 -26z"/>
<path d="M3650 3992 c-22 -48 -25 -137 -5 -188 19 -51 33 -48 54 15 15 47 14
89 -5 144 -20 58 -28 64 -44 29z m17 -169 c-2 -21 -4 -4 -4 37 0 41 2 58 4 38
2 -21 2 -55 0 -75z"/>
<path d="M3272 3637 c-37 -52 -57 -123 -48 -171 8 -44 22 -39 59 19 31 48 48
148 30 179 -8 14 -14 10 -41 -27z m-8 -112 c-16 -61 -32 -94 -20 -40 16 69 28
107 31 103 2 -2 -3 -31 -11 -63z"/>
<path d="M3588 3453 c-21 -8 -38 -19 -38 -24 0 -15 58 -39 95 -39 36 0 95 24
95 38 0 12 -67 42 -93 41 -12 0 -39 -7 -59 -16z m91 -17 c-2 -2 -29 -6 -59 -9
-34 -3 -47 -2 -35 3 19 8 103 14 94 6z"/>
<path d="M2095 4886 c2 -22 12 -47 22 -55 15 -15 16 -15 5 0 -6 8 -16 33 -22
55 l-10 39 5 -39z"/>
<path d="M2350 4866 c0 -7 -9 -26 -21 -42 l-21 -29 26 28 c23 25 35 57 21 57
-3 0 -5 -6 -5 -14z"/>
<path d="M2402 4849 c-7 -11 -16 -17 -21 -15 -4 3 -19 -6 -31 -19 -26 -28 -23
-31 14 -13 24 10 62 55 54 63 -2 2 -9 -5 -16 -16z"/>
<path d="M2116 3430 c8 -43 14 -51 14 -19 0 13 -5 31 -10 39 -7 11 -8 5 -4
-20z"/>
<path d="M2162 3440 c0 -14 2 -19 5 -12 2 6 2 18 0 25 -3 6 -5 1 -5 -13z"/>
<path d="M1915 3338 c16 -26 43 -43 53 -33 3 3 0 5 -6 5 -6 0 -23 12 -38 28
l-26 27 17 -27z"/>
<path d="M1850 3326 c0 -2 8 -10 18 -17 15 -13 16 -12 3 4 -13 16 -21 21 -21
13z"/>
<path d="M1893 3298 c-3 -6 -1 -8 5 -4 5 3 12 1 14 -5 2 -6 14 -9 27 -7 22 3
21 4 -8 15 -22 8 -33 8 -38 1z"/>
<path d="M2502 1835 c0 -16 2 -22 5 -12 2 9 2 23 0 30 -3 6 -5 -1 -5 -18z"/>
<path d="M2530 1825 c-7 -9 -10 -18 -7 -21 3 -3 10 4 17 15 13 25 8 27 -10 6z"/>
<path d="M2300 1793 c0 -5 10 -18 23 -29 l22 -19 -20 25 c-11 14 -21 27 -22
29 -2 2 -3 0 -3 -6z"/>
<path d="M2300 1741 c0 -10 30 -24 37 -17 3 2 -5 9 -16 16 -12 6 -21 7 -21 1z"/>
<path d="M2309 4157 c19 -24 71 -61 71 -50 0 4 -19 21 -43 38 -23 16 -36 21
-28 12z"/>
<path d="M2552 3765 c0 -16 2 -22 5 -12 2 9 2 23 0 30 -3 6 -5 -1 -5 -18z"/>
<path d="M2261 2950 c-1 -26 18 -104 24 -98 2 1 -3 30 -10 63 -7 33 -13 49
-14 35z"/>
<path d="M1901 2898 c-1 -20 29 -101 35 -95 2 2 -5 28 -15 58 -11 30 -20 46
-20 37z"/>
<path d="M2330 2255 c-24 -25 -42 -45 -39 -45 3 0 25 20 49 45 24 25 42 45 39
45 -3 0 -25 -20 -49 -45z"/>
<path d="M1982 2223 c-28 -40 -46 -76 -34 -69 11 6 64 96 57 96 -2 0 -12 -12
-23 -27z"/>
<path d="M2000 1911 c0 -16 28 -81 34 -81 3 0 -2 19 -11 43 -19 48 -23 55 -23
38z"/>
<path d="M2201 1420 c15 -45 24 -54 15 -15 -4 17 -12 34 -17 40 -5 5 -4 -6 2
-25z"/>
<path d="M1790 1364 c0 -12 52 -76 57 -70 3 3 -8 21 -26 41 -17 20 -31 33 -31
29z"/>
<path d="M2287 1034 c-11 -14 -17 -28 -14 -30 3 -3 15 9 27 25 12 17 18 31 13
31 -4 0 -16 -12 -26 -26z"/>
<path d="M1103 4071 c9 -46 35 -80 78 -102 49 -25 59 -24 59 4 0 50 -49 100
-119 122 -22 7 -24 5 -18 -24z m122 -99 c-6 -6 -75 49 -75 60 0 5 18 -6 39
-24 22 -18 38 -34 36 -36z"/>
<path d="M1451 3603 c-69 -77 -116 -155 -152 -253 -33 -92 -36 -108 -14 -90 8
7 12 16 9 21 -3 5 0 8 7 7 20 -5 108 111 149 197 38 78 66 163 57 171 -3 3
-28 -21 -56 -53z m-78 -180 c-44 -85 -73 -130 -56 -88 12 29 63 126 81 153 29
45 20 20 -25 -65z"/>
<path d="M880 3174 c0 -81 55 -210 112 -260 l21 -19 -6 67 c-7 77 -47 166 -96
212 l-31 30 0 -30z m97 -191 c7 -18 11 -33 8 -33 -6 0 -65 127 -65 138 1 9 38
-62 57 -105z"/>
<path d="M1338 2678 c-62 -78 -88 -139 -103 -238 l-7 -45 31 30 c64 60 111
157 125 258 2 20 1 37 -4 37 -5 0 -24 -19 -42 -42z m-45 -151 c-20 -48 -38
-86 -39 -84 -2 2 7 30 20 63 30 76 48 115 52 111 2 -2 -13 -42 -33 -90z"/>
<path d="M1445 2201 c-22 -66 -24 -168 -6 -234 17 -58 28 -67 41 -31 30 77 28
211 -4 287 l-13 32 -18 -54z m23 -226 c-1 -39 -1 -38 -8 10 -5 28 -8 70 -8 95
l1 45 7 -55 c5 -30 8 -73 8 -95z"/>
<path d="M950 2031 c0 -15 57 -86 98 -123 43 -39 157 -101 174 -96 18 6 -58
103 -119 149 -57 44 -153 87 -153 70z m230 -179 c29 -28 -47 20 -86 55 l-39
35 55 -38 c30 -20 62 -44 70 -52z"/>
</g>
</svg>
